<?xml version="1.0" standalone="no"?>
<!DOCTYPE svg PUBLIC "-//W3C//DTD SVG 20010904//EN"
 "http://www.w3.org/TR/2001/REC-SVG-20010904/DTD/svg10.dtd">
<svg version="1.0" xmlns="http://www.w3.org/2000/svg"
 width="626.000000pt" height="626.000000pt" viewBox="0 0 626.000000 626.000000"
 preserveAspectRatio="xMidYMid meet">

<g transform="translate(0.000000,626.000000) scale(0.100000,-0.100000)"
fill="#505050" stroke="none">
<path d="M2850 6244 c-52 -7 -131 -18 -175 -23 -119 -15 -304 -54 -400 -86
-22 -7 -67 -20 -100 -30 -138 -39 -383 -147 -605 -266 -77 -41 -281 -181 -380
-260 -114 -91 -433 -412 -522 -524 -71 -90 -211 -297 -247 -365 -134 -255
-226 -466 -272 -621 -62 -211 -93 -346 -109 -479 -5 -41 -16 -127 -24 -190
-20 -147 -20 -393 0 -540 8 -63 19 -149 24 -190 34 -286 166 -696 313 -970 22
-41 52 -98 66 -125 38 -73 175 -277 249 -370 90 -113 409 -433 522 -524 99
-79 304 -219 380 -260 222 -119 467 -227 605 -266 33 -10 78 -23 100 -30 95
-31 283 -72 395 -85 41 -5 127 -16 190 -24 147 -20 393 -20 540 0 63 8 149 19
190 24 287 34 691 164 970 312 152 81 187 102 300 177 175 116 288 211 487
412 199 201 265 281 392 469 239 357 434 867 481 1260 5 41 16 127 24 190 20
147 20 393 0 540 -8 63 -19 149 -24 190 -11 94 -16 120 -47 250 -69 290 -163
530 -334 850 -41 77 -181 281 -260 380 -91 114 -412 433 -524 522 -94 74 -297
211 -370 249 -27 14 -84 44 -125 66 -273 146 -685 279 -970 313 -41 5 -127 16
-190 24 -139 19 -415 19 -550 0z m-155 -1573 c51 -23 1434 -1402 1458 -1454
22 -46 21 -122 -2 -172 -26 -57 -1399 -1430 -1456 -1456 -177 -81 -357 110
-268 285 8 17 288 304 622 638 333 334 606 612 606 618 0 6 -273 284 -606 618
-333 334 -613 621 -622 638 -71 139 28 303 183 303 25 0 63 -8 85 -18z"/>
</g>
</svg>
